<?xml version="1.0" encoding="UTF-8"?>
<svg version="1.1" xmlns="http://www.w3.org/2000/svg" width="512" height="512">
<path d="M0 0 C6.9117231 4.64842753 12.73938995 10.37942446 18.6328125 16.2265625 C19.37182108 16.95708895 19.37182108 16.95708895 20.12575912 17.7023735 C22.7316347 20.27847205 25.33186286 22.86010957 27.92724609 25.44677734 C30.58079263 28.08936552 33.25238954 30.71287231 35.92874336 33.3323307 C38.01013997 35.37613886 40.07766848 37.43357443 42.14187241 39.4947319 C43.11991293 40.46679669 44.10285971 41.43395508 45.0911293 42.39561844 C53.83228169 50.91795512 60.98937072 60.50224318 61.29272461 73.10571289 C61.42605506 89.24857327 56.39432863 98.52401602 45.22927208 110.00039149 C41.91054879 113.36930119 38.56462223 116.7105875 35.21684265 120.05058289 C33.69545763 121.57570748 32.17450468 123.10126318 30.65394527 124.62721092 C26.48638212 128.80698085 22.3126184 132.98051005 18.13776791 137.15299952 C13.63171177 141.65864692 9.13138887 146.1700148 4.63027954 150.68060303 C-4.18360899 159.51108847 -13.00302011 168.33603753 -21.8246657 177.15877303 C-28.99452361 184.32955098 -36.16277856 191.50192757 -43.329916 198.67542458 C-45.39496358 200.74226729 -47.46001891 202.80910226 -49.52507657 204.8759349 C-50.29519125 205.64671272 -50.29519125 205.64671272 -51.0808638 206.43306181 C-65.51486852 220.87936862 -79.95107371 235.32347347 -94.391675 249.76318645 C-94.93573613 250.30721644 -95.47979727 250.85124642 -96.04034512 251.41176216 C-98.79772459 254.16897542 -101.55512 256.92617275 -104.31251893 259.68336656 C-104.86012532 260.23093305 -105.4077317 260.77849955 -105.97193222 261.34265897 C-107.07932387 262.44996975 -108.18671689 263.55727917 -109.29411127 264.66458723 C-126.52899254 281.89824259 -143.7557294 299.14000304 -160.97631836 316.38793945 C-180.3334117 335.77576065 -199.69725389 355.15680716 -219.07064694 374.52834159 C-221.13666672 376.59421211 -223.20266057 378.66010855 -225.2686367 380.72602272 C-225.7773195 381.23468221 -226.28600229 381.74334169 -226.81009972 382.2674151 C-234.99064979 390.44790367 -243.16477039 398.63478751 -251.33666792 406.82391847 C-259.54968123 415.05389336 -267.77033397 423.27616768 -275.99823157 431.49126347 C-280.45410494 435.94060039 -284.90669084 440.39310097 -289.35062599 444.8543644 C-293.42000965 448.93945244 -297.49853987 453.01517165 -301.58450379 457.08367393 C-303.05969057 458.55578516 -304.53151841 460.0312718 -305.99958924 461.51047953 C-326.38880623 482.04407095 -326.38880623 482.04407095 -342.1015625 482.38061523 C-360.71240927 482.33197325 -370.52032143 473.78395401 -383.328125 461.0078125 C-384.28963733 460.05274877 -385.25128979 459.09782609 -386.21307373 458.14303589 C-388.21329229 456.15469567 -390.20943459 454.16236523 -392.203125 452.16748047 C-394.74016875 449.63023299 -397.29073647 447.10706605 -399.84498978 444.58716011 C-401.83033905 442.62418801 -403.80638998 440.65204988 -405.78005219 438.67733383 C-407.16589244 437.29495215 -408.56076822 435.92164726 -409.95587158 434.5486145 C-419.39788152 425.03837195 -425.02598423 415.17758611 -425.4375 401.625 C-424.94717108 381.97261697 -411.2671594 369.82106846 -398.20375061 356.82279968 C-396.69294942 355.30853764 -395.18280214 353.79362293 -393.67324919 352.27811652 C-389.54243952 348.13482642 -385.40237807 344.00089241 -381.26067221 339.86849821 C-376.78826507 335.40289317 -372.32451706 330.92864662 -367.8596344 326.45552063 C-359.62425335 318.20758251 -351.3820793 309.96647947 -343.13630897 301.7289296 C-335.51901944 294.11919647 -327.90453625 286.50666912 -320.29281425 278.89136696 C-319.78726737 278.38559092 -319.28172049 277.87981488 -318.76085401 277.3587123 C-316.70853012 275.30545435 -314.6562168 273.25218583 -312.6039209 271.19889991 C-293.3668451 251.95265482 -274.12104473 232.71515538 -254.87130639 213.48157609 C-237.77737207 196.40188205 -220.6912156 179.31444371 -203.61157227 162.22045898 C-184.40938507 143.00220195 -165.2023528 123.78880857 -145.98749536 104.58321887 C-143.93865455 102.53534018 -141.88982554 100.48744969 -139.84100151 98.43955421 C-139.08432011 97.68322866 -139.08432011 97.68322866 -138.31235222 96.91162381 C-130.70141996 89.30410108 -123.09419043 81.69288909 -115.48875618 74.07987022 C-106.84084754 65.42338022 -98.1874508 56.77242796 -89.52726323 48.12821951 C-85.10925911 43.71809883 -80.69368606 39.30561514 -76.28458405 34.88659286 C-72.24769584 30.84075935 -68.20393605 26.80192853 -64.15460663 22.76854811 C-62.69178777 21.30907763 -61.23148549 19.84707946 -59.77398432 18.38229843 C-43.716668 2.25095203 -23.27896373 -13.13172313 0 0 Z M-23.79410648 44.67105865 C-24.58223948 45.46011345 -25.37037249 46.24916824 -26.18238831 47.06213379 C-27.08407745 47.96244827 -27.9857666 48.86276276 -28.91477966 49.7903595 C-29.92182948 50.800949 -30.92883165 51.81158599 -31.93579102 52.82226562 C-32.98989763 53.87665408 -34.04422403 54.93082284 -35.09875488 55.98478699 C-37.97068283 58.85642683 -40.83950701 61.73114975 -43.70780683 64.60641289 C-46.70226517 67.60710271 -49.69953661 70.60497985 -52.69651794 73.60314941 C-58.37566778 79.28541318 -64.0522627 84.9702223 -69.72795671 90.65593767 C-76.18780313 97.12694333 -82.65047345 103.59512552 -89.11338913 110.06306553 C-102.41208319 123.37222536 -115.70720535 136.68494815 -129 150 C-124.47486955 155.36131852 -124.47486955 155.36131852 -119.65673828 160.45678711 C-119.07658966 161.0368602 -118.49644104 161.61693329 -117.89871216 162.21458435 C-117.29534027 162.81279495 -116.69196838 163.41100555 -116.0703125 164.02734375 C-115.11751907 164.97801476 -115.11751907 164.97801476 -114.14547729 165.94789124 C-112.14101284 167.94681406 -110.13307786 169.94220784 -108.125 171.9375 C-106.75497611 173.30250133 -105.38518226 174.6677336 -104.015625 176.03320312 C-100.67973457 179.35814211 -97.34072964 182.67992353 -94 186 C-89.71846069 184.34454362 -86.85399127 181.12743734 -83.69018555 177.93310547 C-83.0668634 177.31168167 -82.44354126 176.69025787 -81.80133057 176.05000305 C-79.74154165 173.99391877 -77.68904463 171.93071916 -75.63671875 169.8671875 C-74.20225412 168.43153006 -72.76741886 166.99624287 -71.33222961 165.56130981 C-68.3223006 162.54981611 -65.31576122 159.53499223 -62.31176758 156.51757812 C-58.47712605 152.66601579 -54.63600468 148.82099905 -50.79251385 144.97826958 C-47.82638149 142.01186397 -44.86287313 139.04284851 -41.90021706 136.07297134 C-40.48594018 134.65552959 -39.0710721 133.23867745 -37.65558434 131.82244492 C-28.32767256 122.52232563 -28.32767256 122.52232563 -19.51567078 112.73904419 C-16.61287947 109.40845127 -13.45115054 106.32912169 -10.31640625 103.21875 C-9.61603745 102.51979614 -8.91566864 101.82084229 -8.19407654 101.10070801 C-5.98591542 98.89808461 -3.77427963 96.69898919 -1.5625 94.5 C-0.05250186 92.99502492 1.4572659 91.48981865 2.96679688 89.984375 C6.64187641 86.32024171 10.32007356 82.6592652 14 79 C9.89174608 74.10546618 5.63030488 69.48223283 1.10546875 64.97265625 C0.47264481 64.33887558 -0.16017914 63.70509491 -0.81217957 63.05210876 C-2.1361729 61.72744029 -3.46140836 60.40401222 -4.7878418 59.08178711 C-6.82783827 57.04720242 -8.86237175 55.00726228 -10.89648438 52.96679688 C-12.187179 51.67676209 -13.47818329 50.38703703 -14.76953125 49.09765625 C-15.37988724 48.48527603 -15.99024323 47.87289581 -16.61909485 47.24195862 C-19.93337905 42.94528208 -19.93337905 42.94528208 -23.79410648 44.67105865 Z " fill="#000000" transform="translate(451,17)"/>
<path d="M0 0 C0.7528125 0.13664062 1.505625 0.27328125 2.28125 0.4140625 C7.12811792 2.51323417 9.43575425 7.83563478 11.78515625 12.3203125 C12.39117676 13.47047852 12.99719727 14.62064453 13.62158203 15.80566406 C13.93726135 16.40866333 14.25294067 17.0116626 14.57818604 17.63293457 C15.57874626 19.53081621 16.5968641 21.41824273 17.62060547 23.30371094 C20.57309641 28.75494599 23.47985424 34.17165647 25.91015625 39.8828125 C32.74496837 55.07382205 45.70901413 60.72591513 60.00048828 67.66357422 C64.73988683 69.98136296 69.37631864 72.46128609 74 75 C74.70390869 75.36552979 75.40781738 75.73105957 76.13305664 76.10766602 C80.69033659 78.56307012 83.57267676 81.06425367 86.5 85.375 C87.12890625 87.97265625 87.12890625 87.97265625 87.0625 90.4375 C87.06378906 91.25347656 87.06507813 92.06945312 87.06640625 92.91015625 C86.05686057 97.30342055 83.35335164 99.80892035 79.66943359 102.25268555 C78.59000488 102.8331665 77.51057617 103.41364746 76.3984375 104.01171875 C75.80849503 104.33293701 75.21855255 104.65415527 74.61073303 104.98510742 C73.35294918 105.66818371 72.09247528 106.3463265 70.82955933 107.01986694 C68.85865885 108.07121696 66.89550591 109.13588011 64.93383789 110.2043457 C60.11350404 112.82608384 55.27974413 115.42246889 50.44189453 118.01171875 C48.70144667 118.94429128 46.96296682 119.88055191 45.22705078 120.8215332 C43.75041359 121.62189008 42.26862015 122.4128404 40.78076172 123.19213867 C34.63805463 126.52355731 31.6344271 130.79753446 28.43359375 136.8828125 C27.87091797 137.9435498 27.30824219 139.00428711 26.72851562 140.09716797 C26.13748047 141.22010254 25.54644531 142.34303711 24.9375 143.5 C23.68808314 145.83954943 22.43676245 148.17808308 21.18359375 150.515625 C20.25329346 152.25102539 20.25329346 152.25102539 19.30419922 154.02148438 C16.74067557 158.78637758 14.15369902 163.5347071 11.5 168.25 C11.08032959 169.02102051 10.66065918 169.79204102 10.22827148 170.58642578 C7.63654726 175.13520832 5.28088619 177.89555105 0.5 180.375 C-1.625 180.90625 -1.625 180.90625 -3.5 180.875 C-4.11875 180.8853125 -4.7375 180.895625 -5.375 180.90625 C-9.72793704 179.81801574 -12.84093214 177.32466079 -15.36767578 173.68383789 C-15.8882959 172.66539795 -16.40891602 171.64695801 -16.9453125 170.59765625 C-17.54077881 169.45401611 -18.13624512 168.31037598 -18.74975586 167.13208008 C-19.0552536 166.52909088 -19.36075134 165.92610168 -19.67550659 165.30484009 C-20.63882272 163.41031528 -21.62530649 161.52967076 -22.61938477 159.65112305 C-25.6794313 153.85909539 -28.67009445 148.04000004 -31.58203125 142.171875 C-37.3465261 130.87436748 -42.20267516 124.78450866 -53.78027344 119.65136719 C-59.18521444 117.11482935 -64.37911299 114.15763479 -69.6008606 111.26724243 C-71.52230391 110.20962508 -73.45211451 109.16901349 -75.38452148 108.1315918 C-90.79318697 99.78862605 -90.79318697 99.78862605 -93.5 94.375 C-94.08198614 85.49971132 -94.08198614 85.49971132 -90.5 81.375 C-83.45343414 76.00837629 -75.50321068 72.04087846 -67.6875 67.9375 C-64.09975584 66.04776479 -60.5160193 64.15154302 -56.94677734 62.22705078 C-54.69308112 61.01607617 -52.42801959 59.82595974 -50.15087891 58.65966797 C-43.10674585 54.88474349 -39.21483881 51.42508864 -35.5 44.375 C-34.96149414 43.40900879 -34.42298828 42.44301758 -33.86816406 41.44775391 C-32.08417457 38.21257881 -30.3508354 34.95403097 -28.625 31.6875 C-27.39033688 29.37836381 -26.1546674 27.06976541 -24.91796875 24.76171875 C-24.32935059 23.66134277 -23.74073242 22.5609668 -23.13427734 21.42724609 C-21.08862691 17.60670206 -19.04104311 13.78901361 -16.9375 10 C-16.37933594 8.98164063 -15.82117188 7.96328125 -15.24609375 6.9140625 C-12.89550285 3.4959773 -10.369549 1.10124788 -6.46875 -0.4140625 C-4.15189523 -0.66229694 -2.28453259 -0.46160076 0 0 Z " fill="#000000" transform="translate(423.5,284.625)"/>
<path d="M0 0 C0.825 -0.0103125 1.65 -0.020625 2.5 -0.03125 C6.93087261 0.91031043 9.42529741 3.63364948 11.87768555 7.33056641 C12.4581665 8.40999512 13.03864746 9.48942383 13.63671875 10.6015625 C13.95793701 11.19150497 14.27915527 11.78144745 14.61010742 12.38926697 C15.29318371 13.64705082 15.9713265 14.90752472 16.64486694 16.17044067 C17.69621696 18.14134115 18.76088011 20.10449409 19.8293457 22.06616211 C22.45108384 26.88649596 25.04746889 31.72025587 27.63671875 36.55810547 C28.56929128 38.29855333 29.50555191 40.03703318 30.4465332 41.77294922 C31.24689008 43.24958641 32.0378404 44.73137985 32.81713867 46.21923828 C37.21465689 54.32769575 44.12880944 57.33622724 52 61.5 C54.15184193 62.65606375 56.30286724 63.81364864 58.453125 64.97265625 C59.54044922 65.55805176 60.62777344 66.14344727 61.74804688 66.74658203 C66.76362037 69.45092504 71.76968119 72.16869669 76.75 74.9375 C77.62398437 75.40865234 78.49796875 75.87980469 79.3984375 76.36523438 C84.35219921 79.14484511 87.4394345 81.36506541 90 86.5 C90.84596618 90.1836165 90.43437467 93.52797277 88.8828125 97 C86.52640353 100.12884179 83.8382063 101.65949631 80.4375 103.4375 C79.76001709 103.80593018 79.08253418 104.17436035 78.38452148 104.55395508 C75.93050743 105.88371507 73.46575771 107.19214578 71 108.5 C67.67229719 110.27573729 64.34613692 112.0542837 61.02172852 113.83618164 C58.75964072 115.04681131 56.49460982 116.25196182 54.22631836 117.45092773 C51.13102326 119.10023529 48.06424789 120.79387683 45 122.5 C44.16629883 122.92788818 43.33259766 123.35577637 42.47363281 123.79663086 C35.74904346 127.61547171 32.89875257 133.02142084 29.53829956 139.83639526 C28.60878272 141.7203697 27.65183118 143.58788422 26.68579102 145.45336914 C25.39055722 147.9555267 24.10320236 150.4614482 22.82177734 152.97070312 C20.3001974 157.85571514 17.66093151 162.6626214 14.9375 167.4375 C14.52129395 168.19248779 14.10508789 168.94747559 13.67626953 169.7253418 C10.8371435 174.68093843 7.64039469 179.42260378 1.875 181.12890625 C0.946875 181.09603516 0.946875 181.09603516 0 181.0625 C-0.928125 181.06443359 -0.928125 181.06443359 -1.875 181.06640625 C-6.5120341 179.83043209 -9.41200252 177.35407455 -12.09765625 173.453125 C-12.76743895 172.22673618 -13.42146671 170.99165806 -14.0625 169.75 C-14.42899658 169.07187256 -14.79549316 168.39374512 -15.1730957 167.69506836 C-16.46243469 165.30382036 -17.73040194 162.90178398 -19 160.5 C-20.6535333 157.41023447 -22.31286771 154.32369564 -23.97631836 151.23925781 C-25.09228878 149.16749193 -26.20274975 147.09274605 -27.30688477 145.01464844 C-34.30368218 131.54975145 -34.30368218 131.54975145 -46 122.5 C-46.94004883 121.9848584 -47.88009766 121.4697168 -48.84863281 120.93896484 C-52.09554121 119.16548178 -55.35861131 117.42481549 -58.625 115.6875 C-60.94325897 114.44373412 -63.260972 113.1989501 -65.578125 111.953125 C-66.68478516 111.35822266 -67.79144531 110.76332031 -68.93164062 110.15039062 C-69.94419922 109.60576172 -70.95675781 109.06113281 -72 108.5 C-72.82693359 108.05591797 -73.65386719 107.61183594 -74.50585938 107.15429688 C-76.4690961 106.09390121 -78.42372416 105.01969965 -80.375 103.9375 C-81.90253906 103.10025391 -81.90253906 103.10025391 -83.4609375 102.24609375 C-87.05552775 99.77412169 -89.56992299 97.37157653 -90.56640625 93.03515625 C-90.56447266 91.81119141 -90.56447266 91.81119141 -90.5625 90.5625 C-90.58441406 89.74910156 -90.60632813 88.93570313 -90.62890625 88.09765625 C-89.47121999 83.31590865 -86.71568635 80.61238818 -82.71020508 78.01538086 C-79.88047015 76.42033467 -77.01530415 74.91991367 -74.125 73.4375 C-71.9734012 72.29531973 -69.82237478 71.15206067 -67.671875 70.0078125 C-64.36010951 68.26268476 -61.04547105 66.52365742 -57.72460938 64.79589844 C-54.59474153 63.15857561 -51.48428968 61.48849526 -48.375 59.8125 C-47.42254395 59.3270874 -46.47008789 58.8416748 -45.48876953 58.34155273 C-38.55556722 54.56700319 -35.48725237 50.48511377 -32 43.5 C-30.96539444 41.59854043 -29.92753682 39.69884735 -28.88671875 37.80078125 C-27.81933542 35.80520981 -26.75295422 33.80910208 -25.6875 31.8125 C-21.87717782 24.74271937 -18.06680673 17.67637681 -14 10.75 C-13.34 9.62078125 -12.68 8.4915625 -12 7.328125 C-8.72312258 2.69441553 -5.83624236 -0.07295303 0 0 Z " fill="#000000" transform="translate(90,47.5)"/>
<path d="M0 0 C3.794461 3.2574533 6.10673788 6.57412269 8.375 11 C9.26445312 12.7015625 9.26445312 12.7015625 10.171875 14.4375 C11.0887704 16.2202431 12.00237948 18.00464734 12.91601562 19.7890625 C13.81139828 21.52997781 14.71809825 23.26505751 15.625 25 C16.41777344 26.546875 16.41777344 26.546875 17.2265625 28.125 C20.4040138 33.27611048 24.16789033 36.38442145 29.4921875 39.15625 C30.52730469 39.70410156 31.56242187 40.25195312 32.62890625 40.81640625 C33.70011719 41.37199219 34.77132812 41.92757812 35.875 42.5 C53.97897867 51.95795734 53.97897867 51.95795734 56 56 C56.38508618 59.46577561 56.37462525 61.38432902 54.54296875 64.39453125 C51.12319504 67.8983547 47.35406159 69.71793417 43 71.875 C41.72068604 72.54474854 41.72068604 72.54474854 40.41552734 73.22802734 C36.82747428 75.10593132 33.31168496 76.87757747 29.5390625 78.359375 C19.35449749 82.78269814 15.69392936 92.65969726 11.0078125 102.1171875 C5.22744845 113.77255155 5.22744845 113.77255155 1 118 C-0.92578125 118.2734375 -0.92578125 118.2734375 -3.3125 118.375 C-4.09238281 118.42398438 -4.87226563 118.47296875 -5.67578125 118.5234375 C-9.09548577 117.75328556 -9.97054919 115.80071911 -12 113 C-13.13947177 111.02641277 -14.22982144 109.02389216 -15.27734375 107 C-15.87353516 105.865625 -16.46972656 104.73125 -17.08398438 103.5625 C-18.01307591 101.78037143 -18.93915979 99.99678485 -19.86108398 98.2109375 C-20.76259691 96.46975433 -21.67611478 94.73480366 -22.58984375 93 C-23.39216431 91.453125 -23.39216431 91.453125 -24.21069336 89.875 C-27.66292877 84.32805987 -31.70634581 81.3393255 -37.47265625 78.40625 C-38.71422181 77.7617748 -39.95575737 77.11724182 -41.19726562 76.47265625 C-43.13318467 75.4822089 -45.07102902 74.49566974 -47.01000977 73.51123047 C-48.89846069 72.54824714 -50.77936299 71.57158374 -52.66015625 70.59375 C-53.78043213 70.02333984 -54.90070801 69.45292969 -56.05493164 68.86523438 C-59.17773366 66.88743387 -60.96014914 65.0653978 -63 62 C-63.5625 59 -63.5625 59 -63 56 C-58.6070149 50.4106682 -52.33029239 47.71838871 -46.125 44.5 C-42.05866212 42.37564652 -38.02084625 40.20909726 -34 38 C-32.9953772 37.51104248 -32.9953772 37.51104248 -31.97045898 37.01220703 C-25.11708695 33.12690751 -22.18705433 24.65253925 -18.8125 17.875 C-17.76661266 15.79575958 -16.71570578 13.71953508 -15.65324402 11.64871216 C-14.99624047 10.36622994 -14.34898231 9.07869328 -13.71308899 7.78561401 C-10.42537243 1.3275099 -7.38877475 -1.03702102 0 0 Z " fill="#000000" transform="translate(245,16)"/>
</svg>
