<?xml version="1.0" encoding="UTF-8"?>
<svg version="1.1" xmlns="http://www.w3.org/2000/svg" width="512" height="512">
<path d="M0 0 C1.29950153 -0.0060911 2.59900307 -0.01218221 3.93788344 -0.01845789 C7.51562963 -0.03474834 11.09315391 -0.03256198 14.67092407 -0.02708292 C18.54082574 -0.02439922 22.41067003 -0.03896936 26.2805481 -0.05117798 C33.85037641 -0.0721765 41.42012805 -0.07677609 48.98998206 -0.07499009 C55.14523269 -0.07367987 61.3004595 -0.07749983 67.45570564 -0.08491516 C69.23208684 -0.08701446 71.00846803 -0.08911206 72.78484923 -0.09120798 C74.11127159 -0.09277327 74.11127159 -0.09277327 75.46449036 -0.09437019 C92.16761572 -0.11324938 108.8706971 -0.11222923 125.5738287 -0.10540086 C140.83902709 -0.09982469 156.10405768 -0.12065812 171.36921685 -0.15376133 C187.0632497 -0.18752915 202.75720223 -0.20266297 218.45127207 -0.1980443 C227.2544414 -0.19580305 236.05745559 -0.20099258 244.8605938 -0.22593689 C252.35382672 -0.24698977 259.84681938 -0.25050238 267.34006231 -0.2316373 C271.15941388 -0.22250467 274.97831792 -0.2212598 278.79763412 -0.24199295 C282.94673377 -0.26426644 287.09478711 -0.24742485 291.24389648 -0.22705078 C292.43876063 -0.23956863 293.63362477 -0.25208648 294.86469692 -0.26498365 C304.92602437 -0.15938768 313.66356404 2.28116376 321.18544006 9.20690918 C328.52605126 17.28005539 330.21682785 25.48099944 329.99012756 36.17712402 C329.61828908 43.46293894 327.31311278 50.28334764 325.18544006 57.20690918 C324.65967308 58.97492645 324.13610252 60.74359795 323.61439514 62.51281738 C322.38545832 66.67060475 321.14500347 70.82476777 319.89881897 74.97741699 C317.34511772 83.50879274 314.84868219 92.0567311 312.35340881 100.60534668 C311.37607132 103.95309564 310.39869714 107.30083389 309.42127991 110.64855957 C309.17262554 111.5003394 308.92397118 112.35211924 308.66778183 113.22971058 C306.8738672 119.37270009 305.07339026 125.51374251 303.26991272 131.65393066 C298.14368332 149.1117793 293.04469748 166.57654047 288.0261097 184.06567574 C286.46178042 189.51337179 284.89166811 194.95940511 283.32192516 200.40554333 C281.83191906 205.5783328 280.35218493 210.75392007 278.87995243 215.93179417 C277.96364636 219.14513972 277.03758801 222.35561649 276.10897255 225.56542397 C275.68473641 227.0393787 275.26451234 228.51449582 274.84886742 229.99089622 C269.70494563 248.24586217 262.09379001 262.9973351 245.27919006 272.79675293 C234.69746723 278.43054055 224.55793818 278.68218645 212.83520508 278.63491821 C211.22288955 278.63579119 209.6105743 278.63754386 207.99826056 278.64009655 C203.58334587 278.64455599 199.16852873 278.63658571 194.75362647 278.62654042 C189.98686905 278.61788798 185.22011695 278.62082735 180.45335388 278.62234497 C172.19977456 278.62339269 163.94622692 278.61712793 155.69265556 278.60586929 C143.75944178 278.5896019 131.82624329 278.58440502 119.89301962 278.58189331 C100.53125591 278.57751816 81.16950907 278.56421391 61.80775452 278.54528809 C43.00176579 278.52692465 24.19578165 278.51277041 5.38978577 278.50427246 C4.230209 278.50374701 3.07063223 278.50322157 1.87591677 278.5026802 C-3.94145121 278.50007009 -9.75881922 278.49754268 -15.57618725 278.49505639 C-63.82232314 278.47432948 -112.06844071 278.43910883 -160.31455994 278.39440918 C-160.31455994 278.06440918 -160.31455994 277.73440918 -160.31455994 277.39440918 C-158.84696228 277.1391748 -158.84696228 277.1391748 -157.34971619 276.87878418 C-149.90573081 275.52783869 -142.98195587 274.1368364 -136.31455994 270.39440918 C-135.2124115 269.78145996 -135.2124115 269.78145996 -134.08799744 269.15612793 C-117.58473145 259.0897028 -112.30021868 242.54554092 -107.28721619 224.96472168 C-106.82171438 223.36134679 -106.35528731 221.75824028 -105.88801575 220.15538025 C-104.63403977 215.84481809 -103.39247244 211.53077271 -102.15310287 207.21599197 C-100.83966239 202.65206794 -99.51420551 198.09163666 -98.18980408 193.53088379 C-95.98655446 185.93898296 -93.78953254 178.34530701 -91.5967865 170.75036621 C-88.46270038 159.89696134 -85.30992576 149.04905429 -82.15049744 138.20300293 C-81.65156786 136.48973164 -81.15264105 134.77645955 -80.65371704 133.06318665 C-78.46455616 125.54678203 -76.27384377 118.03083117 -74.08136654 110.51539326 C-72.90735999 106.4908172 -71.73394422 102.46606903 -70.56065369 98.44128418 C-70.33441629 97.66545172 -70.1081789 96.88961926 -69.87508583 96.09027672 C-67.17716692 86.8357374 -64.50137635 77.57537813 -61.86157227 68.30409241 C-60.49912883 63.52436553 -59.1252932 58.74795737 -57.74964905 53.97201538 C-57.13874716 51.83889296 -56.53357297 49.70411959 -55.93489075 47.5675354 C-50.71456732 28.94036491 -44.95198534 15.24471375 -27.76768494 4.97253418 C-18.64211688 0.8020257 -9.93962752 -0.04423843 0 0 Z " fill="#000000" transform="translate(182.31455993652344,180.6055908203125)"/>
<path d="M0 0 C1.14089584 -0.00571014 2.28179169 -0.01142029 3.45726013 -0.01730347 C4.70507767 -0.01842133 5.9528952 -0.01953918 7.23852539 -0.02069092 C9.21484703 -0.02813828 9.21484703 -0.02813828 11.23109436 -0.03573608 C14.84518383 -0.04884258 18.45925474 -0.05530244 22.07336426 -0.05974674 C24.33553311 -0.06268226 26.59769696 -0.06678813 28.85986328 -0.07125092 C35.949476 -0.08492558 43.03907718 -0.09459055 50.12870216 -0.09845281 C58.2895683 -0.10292384 66.45026613 -0.12042728 74.61108112 -0.1494534 C80.93231956 -0.17114881 87.25351095 -0.18116138 93.57478619 -0.18249393 C97.34337021 -0.18353699 101.11179604 -0.18933683 104.88034058 -0.20731354 C108.43283196 -0.22392918 111.98504857 -0.22588525 115.53756523 -0.21717453 C117.44368889 -0.21605059 119.34980399 -0.22966613 121.25587463 -0.243927 C137.42642122 -0.16652281 150.19134165 4.52635109 161.99633789 15.65997314 C166.11088539 19.90832707 169.75127685 24.49128508 173.39868164 29.14044189 C176.37341418 32.82829525 179.37819151 36.49000998 182.39868164 40.14044189 C183.43702148 41.42048096 183.43702148 41.42048096 184.49633789 42.72637939 C185.16536133 43.52302002 185.83438477 44.31966064 186.52368164 45.14044189 C187.39379883 46.19231689 187.39379883 46.19231689 188.28149414 47.26544189 C193.21033215 51.63046449 198.31808585 52.51533934 204.73419189 52.51898193 C205.4388662 52.52351206 206.14354051 52.52804219 206.86956859 52.5327096 C209.21312391 52.54426699 211.55610108 52.53471388 213.8996582 52.52520752 C215.58725857 52.52931583 217.2748561 52.53477824 218.96244812 52.54148865 C222.58883385 52.55319235 226.21506746 52.55570552 229.84146881 52.5511322 C235.58317283 52.54430698 241.32467781 52.5602183 247.06634521 52.57952881 C259.26044665 52.61735448 271.45453055 52.6301735 283.64868164 52.64044189 C296.80107257 52.65152634 309.95337134 52.66697803 323.1056993 52.71115446 C328.80536759 52.72944684 334.50480727 52.73342576 340.20449781 52.72621918 C343.76141345 52.72469012 347.31821624 52.7355267 350.87510109 52.74959755 C352.51529068 52.75357765 354.15550213 52.75251403 355.79568291 52.74582481 C371.39254349 52.68713915 384.61132526 55.14304816 396.47680664 65.98809814 C404.92467934 75.44902875 407.75404322 85.27131754 407.52368164 97.57794189 C407.5146582 98.50026611 407.50563477 99.42259033 407.49633789 100.37286377 C407.47295824 102.62899998 407.4401908 104.88457873 407.39868164 107.14044189 C406.8288337 107.14179842 406.25898576 107.14315495 405.6718697 107.14455259 C371.85157175 107.22531125 338.03131787 107.31631003 304.21108406 107.42049351 C300.14462919 107.43301145 296.07817405 107.44544437 292.01171875 107.45782471 C291.20220619 107.4602907 290.39269363 107.46275669 289.55865038 107.46529742 C276.47407892 107.50495409 263.3894989 107.53773271 250.30490261 107.56794171 C236.86556709 107.59912386 223.42626771 107.63776185 209.98697287 107.68323195 C201.70314072 107.71102691 193.41933481 107.73309862 185.13546873 107.7477044 C179.44462234 107.75829702 173.75382694 107.77617212 168.06301909 107.79960893 C164.78628618 107.81289379 161.50963693 107.82204151 158.23287582 107.82465553 C131.42161303 107.84986314 108.3755547 109.1676347 87.80883789 128.59356689 C81.13455701 135.64645367 76.46309586 143.10289453 73.18774414 152.17559814 C72.89343002 152.98496323 72.59911591 153.79432831 72.29588318 154.6282196 C68.00162315 166.74833789 64.60462657 179.16113325 61.0835228 191.52219391 C60.01635247 195.26166946 58.94048378 198.9986384 57.86474609 202.73565674 C57.64357085 203.50406765 57.42239561 204.27247856 57.19451809 205.06417465 C56.74038288 206.64186749 56.28621582 208.21955117 55.8320179 209.79722595 C55.13488314 212.21983759 54.43862885 214.64270089 53.74253845 217.06561279 C50.28635055 229.09048998 46.7942478 241.10462958 43.28149414 253.11309814 C43.02585756 253.98701014 42.77022099 254.86092213 42.50683784 255.7613163 C39.68040733 265.42112703 36.84783822 275.0791324 34.01269531 284.73638916 C33.25964403 287.30195517 32.50665403 289.86753914 31.75374031 292.43314552 C31.26104389 294.11201011 30.76827077 295.79085219 30.27541924 297.46967125 C27.43572299 307.14503582 24.61660588 316.82575889 21.84217834 326.52005005 C20.47038582 331.31121412 19.08929232 336.09967212 17.70742798 340.88793945 C17.09559077 343.0191414 16.48877384 345.15179247 15.88754272 347.28601074 C8.15448659 374.73384547 8.15448659 374.73384547 -4.60131836 382.14044189 C-12.37058214 385.56087249 -20.27210887 386.68810343 -28.28881836 383.57794189 C-34.0802359 380.73285741 -38.11513509 376.0702746 -40.60131836 370.14044189 C-40.85546869 367.49660206 -40.85546869 367.49660206 -40.86138058 364.41871643 C-40.86844617 363.24424831 -40.87551176 362.0697802 -40.88279146 360.85972214 C-40.88037638 359.56830936 -40.87796129 358.27689659 -40.87547302 356.9463501 C-40.87992481 355.56138952 -40.88523866 354.17643149 -40.89134175 352.7914772 C-40.90554019 348.981332 -40.90718469 345.1712683 -40.90674484 341.36110044 C-40.90839149 337.25318284 -40.92145544 333.14529898 -40.93293762 329.03739929 C-40.9558016 320.05158031 -40.96371021 311.06578492 -40.96876407 302.0799408 C-40.97202043 296.46757658 -40.97854267 290.85521922 -40.98576546 285.24285889 C-41.00533569 269.70045187 -41.02173659 254.15805124 -41.02464199 238.6156311 C-41.02482956 237.62070534 -41.02501713 236.62577958 -41.02521038 235.60070455 C-41.02557663 233.58376281 -41.02594033 231.56682106 -41.0263015 229.54987931 C-41.02648431 228.5486761 -41.02666712 227.54747288 -41.02685547 226.51593018 C-41.02703602 225.51350273 -41.02721657 224.51107528 -41.02740259 223.47827125 C-41.030942 207.2458915 -41.05794795 191.01364461 -41.09535336 174.78131092 C-41.13345964 158.11117629 -41.15279965 141.44110752 -41.1531015 124.77092838 C-41.15368566 115.41320838 -41.16215056 106.05564672 -41.19109917 96.69796753 C-41.21564447 88.72697754 -41.22287496 80.75620359 -41.20785164 72.78518599 C-41.20069474 68.72082866 -41.20148683 64.65689765 -41.22426224 60.59258842 C-41.24494908 56.86511543 -41.24216271 53.13839385 -41.22138739 49.41092813 C-41.21627517 47.43762785 -41.23559773 45.46430982 -41.2560491 43.49110889 C-41.13523948 30.5845031 -36.57063054 20.62657948 -27.86303711 11.27325439 C-20.42462532 4.09665006 -10.30392492 0.03092869 0 0 Z " fill="#000000" transform="translate(40.601318359375,52.85955810546875)"/>
</svg>
