<?xml version="1.0" encoding="UTF-8"?>
<svg version="1.1" xmlns="http://www.w3.org/2000/svg" width="512" height="512">
<path d="M0 0 C1.70736328 -0.0309375 1.70736328 -0.0309375 3.44921875 -0.0625 C19.24325496 -0.13420959 34.09548552 3.86423115 45.72265625 15.0078125 C60.33888345 31.17296551 61.42960961 51.51070452 60.75 72.25 C58.18063013 120.23246003 32.67027396 170.09070959 7.75 210.25 C7.23501953 211.08273438 6.72003906 211.91546875 6.18945312 212.7734375 C-9.33154382 237.76640808 -26.40768338 261.64659474 -45.25 284.25 C-45.96027344 285.13300781 -46.67054688 286.01601563 -47.40234375 286.92578125 C-51.38772866 291.87774457 -55.48893318 296.65715224 -59.8125 301.3125 C-63.22660369 305.01131087 -66.62130562 308.72092881 -69.875 312.5625 C-70.50664062 313.30113281 -71.13828125 314.03976562 -71.7890625 314.80078125 C-74.72074085 319.71565378 -74.47542008 324.58302877 -73.14356995 330.02171326 C-72.87334267 331.04543785 -72.87334267 331.04543785 -72.59765625 332.08984375 C-72.41867294 332.81563126 -72.23968964 333.54141876 -72.05528259 334.28919983 C-71.48640766 336.59184778 -70.90110892 338.88982391 -70.3125 341.1875 C-69.72869939 343.48184847 -69.14896728 345.77690773 -68.58042908 348.0750885 C-68.22791954 349.49880878 -67.86680975 350.9204393 -67.49537659 352.33934021 C-64.90852222 362.74901948 -66.61504071 371.94726978 -71.43561745 381.38223076 C-75.20690139 387.34303108 -80.44626669 392.1019926 -85.4440918 397.02758789 C-86.69386693 398.27759007 -87.94254579 399.52868912 -89.19021606 400.78079224 C-92.56098015 404.15723323 -95.94694505 407.51803665 -99.33610129 410.87600255 C-102.88460413 414.39685823 -106.41923322 417.93158968 -109.95552063 421.46470642 C-115.88799673 427.38799926 -121.82953732 433.30206538 -127.77758789 439.2097168 C-136.17412709 447.5492796 -144.55323715 455.9061905 -152.92938364 464.26622784 C-158.7305478 470.05495207 -164.5358251 475.83955079 -170.34189248 481.62335658 C-171.75033343 483.02643292 -173.15866045 484.42962364 -174.56687522 485.83292699 C-178.57557866 489.82735374 -182.58681736 493.81919855 -186.60226822 497.8068428 C-187.81976591 499.01660416 -189.03642613 500.22720899 -190.25220299 501.43869972 C-191.90639289 503.0866948 -193.56361556 504.73157602 -195.22172546 506.37562561 C-196.61403145 507.75957315 -196.61403145 507.75957315 -198.03446484 509.17147923 C-200.86380404 511.82584482 -201.71412536 512.20038198 -205.625 512.5625 C-209.25 512.25 -209.25 512.25 -211.35839844 510.79418945 C-214.06911811 507.14829249 -214.45915595 503.66212526 -215.140625 499.23046875 C-215.29944153 498.28229782 -215.45825806 497.33412689 -215.62188721 496.35722351 C-216.18067324 492.9905987 -216.71452057 489.62040715 -217.25 486.25 C-217.57951467 484.23162396 -217.91186657 482.2137281 -218.24449921 480.19586372 C-219.61209279 471.8980187 -220.93947538 463.5941519 -222.25146484 455.28735352 C-222.87821278 451.32171665 -223.51531219 447.35781197 -224.15458298 443.39417744 C-224.65272687 440.2936006 -225.1432427 437.19185063 -225.63175201 434.08974266 C-225.86334324 432.62747575 -226.09770794 431.16564488 -226.3351059 429.70430946 C-228.98627659 413.34925806 -229.40644629 400.59882132 -220.25 386.25 C-219.39921875 385.28707031 -219.39921875 385.28707031 -218.53125 384.3046875 C-217.01028312 382.31785386 -217.01028312 382.31785386 -217.4324007 379.89169025 C-218.41729437 376.70946637 -219.70738817 375.28469231 -222.05033875 372.92826843 C-222.86762955 372.09680801 -223.68492035 371.2653476 -224.52697754 370.40869141 C-225.43032837 369.51029541 -226.3336792 368.61189941 -227.2644043 367.6862793 C-228.22113968 366.7208468 -229.17703652 365.75458269 -230.13215637 364.78755188 C-232.72618946 362.16674947 -235.33287747 359.55889194 -237.9428556 356.95397925 C-240.12095265 354.77802196 -242.29306665 352.59614026 -244.46529609 350.41432792 C-249.58961104 345.2678272 -254.72450504 340.13205183 -259.8659668 335.00268555 C-265.17019992 329.71053928 -270.45580014 324.40029074 -275.73265523 319.08085698 C-280.26460218 314.51369162 -284.80806448 309.95821063 -289.36090976 305.41187793 C-292.07972672 302.69668858 -294.79389399 299.97722825 -297.49698448 297.24637413 C-300.03886482 294.67936705 -302.59480838 292.12725159 -305.16230583 289.58587456 C-306.55002861 288.20514791 -307.92294483 286.80958958 -309.29537964 285.41366577 C-310.12676956 284.59630447 -310.95815948 283.77894318 -311.81474304 282.93681335 C-312.53059916 282.22062175 -313.24645529 281.50443014 -313.98400402 280.76653576 C-316.919768 278.80175246 -318.78395747 278.88176423 -322.25 279.25 C-324.47010811 280.37209597 -324.47010811 280.37209597 -326.4375 282 C-342.24146841 293.09696284 -359.94481593 289.18993262 -377.7890625 286.29296875 C-379.72851603 285.98556793 -381.66808341 285.67888463 -383.60775757 285.37287903 C-387.64127401 284.73386056 -391.673364 284.08665785 -395.70458984 283.43334961 C-400.8657451 282.59755364 -406.029873 281.78207765 -411.19519997 280.97251415 C-415.18730709 280.34466457 -419.17771297 279.70650727 -423.16767502 279.06517982 C-425.07214296 278.76027322 -426.97711389 278.45849084 -428.88258743 278.15993309 C-431.53762538 277.7422885 -434.19006668 277.31087501 -436.84228516 276.87573242 C-438.01426956 276.69554565 -438.01426956 276.69554565 -439.20993042 276.51171875 C-443.47504618 275.79509477 -446.76530374 274.85604369 -450.25 272.25 C-451.76816358 269.21367283 -451.74607651 267.66052601 -451.25 264.25 C-446.34387206 256.35862665 -439.22520631 249.92788951 -432.69018555 243.3996582 C-431.5325838 242.23606027 -430.37538896 241.07205741 -429.21856689 239.90768433 C-426.09720776 236.76877489 -422.96950099 233.63626787 -419.8399961 230.50548196 C-417.88073791 228.54479605 -415.92291327 226.58269026 -413.96558571 224.62007713 C-407.12508476 217.76111646 -400.27948105 210.90729729 -393.42895508 204.05834961 C-387.06174958 197.69234633 -380.70579423 191.31526216 -374.35499161 184.93289882 C-368.884199 179.43589788 -363.40566472 173.94669377 -357.92111427 168.46341962 C-354.65328528 165.19609866 -351.38858366 161.92580119 -348.13165855 158.6476078 C-345.06822613 155.56471459 -341.9952064 152.49170237 -338.91479492 149.42577744 C-337.79154174 148.3046033 -336.67163735 147.18006159 -335.55552101 146.05178261 C-325.89983453 136.29779191 -316.44188758 128.23273773 -302.125 127.6875 C-292.71655866 127.75349107 -283.79925672 130.31612835 -274.76904297 132.75952148 C-262.70727259 136.29496941 -262.70727259 136.29496941 -250.86279297 133.93994141 C-248.4816481 132.19505387 -246.38998699 130.28422157 -244.25 128.25 C-242.80337138 126.92674273 -241.35670926 125.60352165 -239.90917969 124.28125 C-238.87701334 123.33515227 -237.84775899 122.38586881 -236.82128906 121.43359375 C-232.78933416 117.69851658 -228.61627891 114.18674714 -224.33203125 110.7421875 C-222.01835882 108.87130916 -219.72813421 106.98268121 -217.44921875 105.0703125 C-207.02801607 96.34647462 -196.29339045 88.16890817 -185.25 80.25 C-184.46286621 79.68313477 -183.67573242 79.11626953 -182.86474609 78.53222656 C-161.81365247 63.41751547 -139.99595746 49.66452183 -117.25 37.25 C-116.44433594 36.80462891 -115.63867188 36.35925781 -114.80859375 35.90039062 C-80.00978377 16.70004555 -40.25638129 0.17991679 0 0 Z M-100.25 88.0625 C-110.38699329 97.90759035 -117.2362571 110.921172 -117.54248047 125.10400391 C-117.66136347 140.8168571 -113.75591441 153.71993215 -102.99609375 165.59765625 C-92.11885051 175.89088643 -78.85801319 181.13984092 -63.95703125 181.28125 C-49.42570918 180.58680211 -35.8880397 175.01161099 -25.87109375 164.25 C-15.38577695 151.31389831 -11.28355166 137.71124467 -12.46875 121.203125 C-14.61954597 106.89205951 -21.93975808 95.05913675 -32.98046875 85.84765625 C-53.95306308 71.08381618 -80.24631335 72.39751251 -100.25 88.0625 Z " fill="#000000" transform="translate(451.25,-0.25)"/>
<path d="M0 0 C9.97796737 2.2900253 19.02736302 14.91127622 26.27734375 22.13671875 C26.84915438 22.705702 27.420965 23.27468525 28.01010323 23.86091042 C31.02478385 26.86074441 34.03669257 29.86332714 37.04614258 32.8684082 C40.14164301 35.95838461 43.2463493 39.03893942 46.35320187 42.11749554 C48.75776529 44.50342076 51.15558035 46.89604183 53.55160713 49.29053688 C54.69374676 50.42966205 55.83837255 51.5663004 56.98557854 52.7003231 C58.58604087 54.28366849 60.17670246 55.87627848 61.76538086 57.47143555 C63.12245399 58.82304024 63.12245399 58.82304024 64.50694275 60.20195007 C66.90531233 62.98260608 68.44107924 65.47367809 69.8125 68.875 C68.98056436 73.76801403 66.97984543 76.10969195 63.25 79.25 C62.34636719 80.02214844 61.44273437 80.79429687 60.51171875 81.58984375 C59.62097656 82.34394531 58.73023438 83.09804688 57.8125 83.875 C56.39431681 85.18586122 54.97758899 86.49829916 53.5625 87.8125 C36.61584996 102.81641238 17.15193399 111.69521419 -3.73046875 119.81640625 C-6.50814577 120.89758386 -9.28547901 121.97963848 -12.0625 123.0625 C-12.76516998 123.33628479 -13.46783997 123.61006958 -14.19180298 123.89215088 C-26.95354302 128.87674154 -39.46743806 134.31110777 -51.9296875 140 C-53.50508301 140.71736328 -53.50508301 140.71736328 -55.11230469 141.44921875 C-57.17665167 142.40633104 -59.22951404 143.38858056 -61.27050781 144.39453125 C-62.23569336 144.86246094 -63.20087891 145.33039063 -64.1953125 145.8125 C-65.03980957 146.23402344 -65.88430664 146.65554688 -66.75439453 147.08984375 C-69.63030592 148.01789222 -71.31744209 147.69995751 -74.1875 146.875 C-75.27363586 142.05105865 -75.01909054 137.93122713 -74.125 133.125 C-73.9235437 132.02115967 -73.9235437 132.02115967 -73.71801758 130.89501953 C-72.03070999 122.28273937 -69.22832358 114.09096106 -66.1875 105.875 C-65.74664062 104.67875 -65.30578125 103.4825 -64.8515625 102.25 C-28.37446147 7.78906785 -28.37446147 7.78906785 0 0 Z " fill="#000000" transform="translate(125.1875,319.125)"/>
</svg>
